<mxfile host="app.diagrams.net" modified="2023-07-23T18:24:44.795Z" agent="Mozilla/5.0 (Windows NT 10.0; Win64; x64; rv:109.0) Gecko/20100101 Firefox/115.0" etag="BA7v8DdGaxo2lFCubrTm" version="21.6.5" type="device">
  <diagram name="PÃ¡gina-1" id="s-o3ixtNKtdX_ouT7-_z">
    <mxGraphModel dx="1195" dy="622" grid="1" gridSize="10" guides="1" tooltips="1" connect="1" arrows="1" fold="1" page="1" pageScale="1" pageWidth="827" pageHeight="1169" math="0" shadow="0">
      <root>
        <mxCell id="0" />
        <mxCell id="1" parent="0" />
        <mxCell id="foE0vXhQJsZc3DZPr7Xe-6" style="rounded=0;orthogonalLoop=1;jettySize=auto;html=1;entryX=1;entryY=0;entryDx=0;entryDy=0;" parent="1" source="foE0vXhQJsZc3DZPr7Xe-1" target="foE0vXhQJsZc3DZPr7Xe-2" edge="1">
          <mxGeometry relative="1" as="geometry" />
        </mxCell>
        <mxCell id="foE0vXhQJsZc3DZPr7Xe-7" value="&amp;nbsp;perteneceAComision&amp;nbsp; " style="edgeLabel;html=1;align=center;verticalAlign=middle;resizable=0;points=[];" parent="foE0vXhQJsZc3DZPr7Xe-6" vertex="1" connectable="0">
          <mxGeometry x="-0.05" y="3" relative="1" as="geometry">
            <mxPoint x="-4" y="-3" as="offset" />
          </mxGeometry>
        </mxCell>
        <mxCell id="foE0vXhQJsZc3DZPr7Xe-8" style="rounded=0;orthogonalLoop=1;jettySize=auto;html=1;" parent="1" source="foE0vXhQJsZc3DZPr7Xe-1" target="foE0vXhQJsZc3DZPr7Xe-3" edge="1">
          <mxGeometry relative="1" as="geometry" />
        </mxCell>
        <mxCell id="foE0vXhQJsZc3DZPr7Xe-9" value="&amp;nbsp;participaEnDiscurso&amp;nbsp; " style="edgeLabel;html=1;align=center;verticalAlign=middle;resizable=0;points=[];" parent="foE0vXhQJsZc3DZPr7Xe-8" vertex="1" connectable="0">
          <mxGeometry x="-0.2375" y="-2" relative="1" as="geometry">
            <mxPoint x="9" y="-2" as="offset" />
          </mxGeometry>
        </mxCell>
        <mxCell id="foE0vXhQJsZc3DZPr7Xe-1" value="&lt;font style=&quot;font-size: 11px;&quot; face=&quot;Verdana&quot;&gt;Constituyente&lt;/font&gt;" style="ellipse;whiteSpace=wrap;html=1;aspect=fixed;fillColor=#0050ef;strokeColor=#000000;fontColor=#ffffff;" parent="1" vertex="1">
          <mxGeometry x="360" y="290" width="80" height="80" as="geometry" />
        </mxCell>
        <mxCell id="foE0vXhQJsZc3DZPr7Xe-24" style="rounded=0;orthogonalLoop=1;jettySize=auto;html=1;entryX=0.5;entryY=0;entryDx=0;entryDy=0;" parent="1" source="foE0vXhQJsZc3DZPr7Xe-2" target="foE0vXhQJsZc3DZPr7Xe-5" edge="1">
          <mxGeometry relative="1" as="geometry" />
        </mxCell>
        <mxCell id="foE0vXhQJsZc3DZPr7Xe-32" value="nombreComision" style="edgeLabel;html=1;align=center;verticalAlign=middle;resizable=0;points=[];" parent="foE0vXhQJsZc3DZPr7Xe-24" vertex="1" connectable="0">
          <mxGeometry x="-0.24" y="-1" relative="1" as="geometry">
            <mxPoint as="offset" />
          </mxGeometry>
        </mxCell>
        <mxCell id="foE0vXhQJsZc3DZPr7Xe-2" value="&lt;font face=&quot;Verdana&quot;&gt;Comision&lt;/font&gt;" style="ellipse;whiteSpace=wrap;html=1;aspect=fixed;fillColor=#0050ef;strokeColor=#000000;fontColor=#ffffff;" parent="1" vertex="1">
          <mxGeometry x="240" y="390" width="80" height="80" as="geometry" />
        </mxCell>
        <mxCell id="foE0vXhQJsZc3DZPr7Xe-10" style="rounded=0;orthogonalLoop=1;jettySize=auto;html=1;" parent="1" source="foE0vXhQJsZc3DZPr7Xe-3" target="foE0vXhQJsZc3DZPr7Xe-4" edge="1">
          <mxGeometry relative="1" as="geometry" />
        </mxCell>
        <mxCell id="foE0vXhQJsZc3DZPr7Xe-11" value="tieneTopico" style="edgeLabel;html=1;align=center;verticalAlign=middle;resizable=0;points=[];" parent="foE0vXhQJsZc3DZPr7Xe-10" vertex="1" connectable="0">
          <mxGeometry x="-0.06" relative="1" as="geometry">
            <mxPoint as="offset" />
          </mxGeometry>
        </mxCell>
        <mxCell id="foE0vXhQJsZc3DZPr7Xe-18" style="rounded=0;orthogonalLoop=1;jettySize=auto;html=1;entryX=0;entryY=0.25;entryDx=0;entryDy=0;" parent="1" source="foE0vXhQJsZc3DZPr7Xe-3" target="foE0vXhQJsZc3DZPr7Xe-12" edge="1">
          <mxGeometry relative="1" as="geometry" />
        </mxCell>
        <mxCell id="foE0vXhQJsZc3DZPr7Xe-41" value="tipoDiscurso" style="edgeLabel;html=1;align=center;verticalAlign=middle;resizable=0;points=[];" parent="foE0vXhQJsZc3DZPr7Xe-18" vertex="1" connectable="0">
          <mxGeometry x="0.4116" relative="1" as="geometry">
            <mxPoint x="-24" y="-2" as="offset" />
          </mxGeometry>
        </mxCell>
        <mxCell id="foE0vXhQJsZc3DZPr7Xe-21" style="rounded=0;orthogonalLoop=1;jettySize=auto;html=1;entryX=0;entryY=0.75;entryDx=0;entryDy=0;" parent="1" source="foE0vXhQJsZc3DZPr7Xe-3" target="foE0vXhQJsZc3DZPr7Xe-16" edge="1">
          <mxGeometry relative="1" as="geometry" />
        </mxCell>
        <mxCell id="foE0vXhQJsZc3DZPr7Xe-33" value="duracion" style="edgeLabel;html=1;align=center;verticalAlign=middle;resizable=0;points=[];" parent="foE0vXhQJsZc3DZPr7Xe-21" vertex="1" connectable="0">
          <mxGeometry x="-0.3721" y="3" relative="1" as="geometry">
            <mxPoint x="10" as="offset" />
          </mxGeometry>
        </mxCell>
        <mxCell id="foE0vXhQJsZc3DZPr7Xe-29" style="rounded=0;orthogonalLoop=1;jettySize=auto;html=1;entryX=0.5;entryY=1;entryDx=0;entryDy=0;" parent="1" source="foE0vXhQJsZc3DZPr7Xe-3" target="foE0vXhQJsZc3DZPr7Xe-14" edge="1">
          <mxGeometry relative="1" as="geometry" />
        </mxCell>
        <mxCell id="foE0vXhQJsZc3DZPr7Xe-39" value="texto" style="edgeLabel;html=1;align=center;verticalAlign=middle;resizable=0;points=[];" parent="foE0vXhQJsZc3DZPr7Xe-29" vertex="1" connectable="0">
          <mxGeometry x="-0.2679" relative="1" as="geometry">
            <mxPoint x="2" y="-8" as="offset" />
          </mxGeometry>
        </mxCell>
        <mxCell id="foE0vXhQJsZc3DZPr7Xe-31" style="rounded=0;orthogonalLoop=1;jettySize=auto;html=1;entryX=0.25;entryY=1;entryDx=0;entryDy=0;" parent="1" source="foE0vXhQJsZc3DZPr7Xe-3" target="foE0vXhQJsZc3DZPr7Xe-15" edge="1">
          <mxGeometry relative="1" as="geometry" />
        </mxCell>
        <mxCell id="foE0vXhQJsZc3DZPr7Xe-38" value="Text" style="edgeLabel;html=1;align=center;verticalAlign=middle;resizable=0;points=[];" parent="foE0vXhQJsZc3DZPr7Xe-31" vertex="1" connectable="0">
          <mxGeometry x="0.041" relative="1" as="geometry">
            <mxPoint as="offset" />
          </mxGeometry>
        </mxCell>
        <mxCell id="foE0vXhQJsZc3DZPr7Xe-40" value="numeroSesion" style="edgeLabel;html=1;align=center;verticalAlign=middle;resizable=0;points=[];" parent="foE0vXhQJsZc3DZPr7Xe-31" vertex="1" connectable="0">
          <mxGeometry x="0.0183" y="-1" relative="1" as="geometry">
            <mxPoint as="offset" />
          </mxGeometry>
        </mxCell>
        <mxCell id="foE0vXhQJsZc3DZPr7Xe-3" value="&lt;font face=&quot;Verdana&quot;&gt;Discurso&lt;/font&gt;" style="ellipse;whiteSpace=wrap;html=1;aspect=fixed;fillColor=#0050ef;strokeColor=#000000;fontColor=#ffffff;" parent="1" vertex="1">
          <mxGeometry x="480" y="390" width="80" height="80" as="geometry" />
        </mxCell>
        <mxCell id="foE0vXhQJsZc3DZPr7Xe-23" style="rounded=0;orthogonalLoop=1;jettySize=auto;html=1;entryX=0;entryY=0.5;entryDx=0;entryDy=0;" parent="1" source="foE0vXhQJsZc3DZPr7Xe-4" target="foE0vXhQJsZc3DZPr7Xe-22" edge="1">
          <mxGeometry relative="1" as="geometry" />
        </mxCell>
        <mxCell id="foE0vXhQJsZc3DZPr7Xe-37" value="&amp;nbsp;nombreTopico&amp;nbsp; " style="edgeLabel;html=1;align=center;verticalAlign=middle;resizable=0;points=[];" parent="foE0vXhQJsZc3DZPr7Xe-23" vertex="1" connectable="0">
          <mxGeometry x="-0.5333" y="-3" relative="1" as="geometry">
            <mxPoint x="27" y="-3" as="offset" />
          </mxGeometry>
        </mxCell>
        <mxCell id="foE0vXhQJsZc3DZPr7Xe-4" value="&lt;font face=&quot;Verdana&quot;&gt;Topico&lt;/font&gt;" style="ellipse;whiteSpace=wrap;html=1;aspect=fixed;fillColor=#0050ef;strokeColor=#000000;fontColor=#ffffff;" parent="1" vertex="1">
          <mxGeometry x="480" y="530" width="80" height="80" as="geometry" />
        </mxCell>
        <mxCell id="foE0vXhQJsZc3DZPr7Xe-5" value="String" style="rounded=0;whiteSpace=wrap;html=1;strokeColor=#000000;fillColor=#fdc502;" parent="1" vertex="1">
          <mxGeometry x="245" y="520" width="70" height="20" as="geometry" />
        </mxCell>
        <mxCell id="foE0vXhQJsZc3DZPr7Xe-12" value="String" style="rounded=0;whiteSpace=wrap;html=1;strokeColor=#000000;fillColor=#fdc502;" parent="1" vertex="1">
          <mxGeometry x="650" y="440" width="70" height="20" as="geometry" />
        </mxCell>
        <mxCell id="foE0vXhQJsZc3DZPr7Xe-14" value="String" style="rounded=0;whiteSpace=wrap;html=1;strokeColor=#000000;fillColor=#fdc502;" parent="1" vertex="1">
          <mxGeometry x="490" y="310" width="70" height="20" as="geometry" />
        </mxCell>
        <mxCell id="foE0vXhQJsZc3DZPr7Xe-15" value="String" style="rounded=0;whiteSpace=wrap;html=1;strokeColor=#000000;fillColor=#fdc502;" parent="1" vertex="1">
          <mxGeometry x="580" y="330" width="70" height="20" as="geometry" />
        </mxCell>
        <mxCell id="foE0vXhQJsZc3DZPr7Xe-16" value="String" style="rounded=0;whiteSpace=wrap;html=1;strokeColor=#000000;fillColor=#fdc502;" parent="1" vertex="1">
          <mxGeometry x="630" y="390" width="70" height="20" as="geometry" />
        </mxCell>
        <mxCell id="foE0vXhQJsZc3DZPr7Xe-22" value="String" style="rounded=0;whiteSpace=wrap;html=1;strokeColor=#000000;fillColor=#fdc502;" parent="1" vertex="1">
          <mxGeometry x="680" y="560" width="70" height="20" as="geometry" />
        </mxCell>
        <mxCell id="TSxIFxm51SWpdzFhMuO1-1" value="String" style="rounded=0;whiteSpace=wrap;html=1;strokeColor=#000000;fillColor=#fdc502;" vertex="1" parent="1">
          <mxGeometry x="620" y="480" width="70" height="20" as="geometry" />
        </mxCell>
        <mxCell id="TSxIFxm51SWpdzFhMuO1-3" style="rounded=0;orthogonalLoop=1;jettySize=auto;html=1;entryX=-0.043;entryY=0.179;entryDx=0;entryDy=0;exitX=1;exitY=1;exitDx=0;exitDy=0;entryPerimeter=0;" edge="1" parent="1" source="foE0vXhQJsZc3DZPr7Xe-3" target="TSxIFxm51SWpdzFhMuO1-1">
          <mxGeometry relative="1" as="geometry">
            <mxPoint x="550" y="460" as="sourcePoint" />
            <mxPoint x="640" y="470" as="targetPoint" />
          </mxGeometry>
        </mxCell>
        <mxCell id="TSxIFxm51SWpdzFhMuO1-4" value="fecha" style="edgeLabel;html=1;align=center;verticalAlign=middle;resizable=0;points=[];" vertex="1" connectable="0" parent="TSxIFxm51SWpdzFhMuO1-3">
          <mxGeometry x="0.4116" relative="1" as="geometry">
            <mxPoint x="-17" y="-6" as="offset" />
          </mxGeometry>
        </mxCell>
      </root>
    </mxGraphModel>
  </diagram>
</mxfile>
